<mxfile host="app.diagrams.net" agent="Mozilla/5.0 (Windows NT 10.0; Win64; x64) AppleWebKit/537.36 (KHTML, like Gecko) Chrome/131.0.0.0 Safari/537.36" version="25.0.3">
  <diagram name="Page-1" id="2YBvvXClWsGukQMizWep">
    <mxGraphModel dx="1290" dy="1703" grid="1" gridSize="10" guides="1" tooltips="1" connect="1" arrows="1" fold="1" page="1" pageScale="1" pageWidth="850" pageHeight="1100" background="#ffffff" math="0" shadow="0">
      <root>
        <mxCell id="0" />
        <mxCell id="1" parent="0" />
        <object placeholders="1" c4Name="Review Credits/Grades Service" c4Type="ContainerScopeBoundary" c4Application="Container" label="&lt;font style=&quot;font-size: 16px&quot;&gt;&lt;b&gt;&lt;div style=&quot;text-align: left&quot;&gt;%c4Name%&lt;/div&gt;&lt;/b&gt;&lt;/font&gt;&lt;div style=&quot;text-align: left&quot;&gt;[%c4Application%]&lt;/div&gt;" id="wkqr8Lv-P-HSKv5gRVWf-94">
          <mxCell style="rounded=1;fontSize=11;whiteSpace=wrap;html=1;dashed=1;arcSize=20;fillColor=none;strokeColor=#666666;fontColor=#333333;labelBackgroundColor=none;align=left;verticalAlign=bottom;labelBorderColor=none;spacingTop=0;spacing=10;dashPattern=8 4;metaEdit=1;rotatable=0;perimeter=rectanglePerimeter;noLabel=0;labelPadding=0;allowArrows=0;connectable=0;expand=0;recursiveResize=0;editable=1;pointerEvents=0;absoluteArcSize=1;points=[[0.25,0,0],[0.5,0,0],[0.75,0,0],[1,0.25,0],[1,0.5,0],[1,0.75,0],[0.75,1,0],[0.5,1,0],[0.25,1,0],[0,0.75,0],[0,0.5,0],[0,0.25,0]];" parent="1" vertex="1">
            <mxGeometry x="960" y="-30" width="320" height="120" as="geometry" />
          </mxCell>
        </object>
        <object placeholders="1" c4Name="Web Application" c4Type="ContainerScopeBoundary" c4Application="Container" label="&lt;font style=&quot;font-size: 16px&quot;&gt;&lt;b&gt;&lt;div style=&quot;text-align: left&quot;&gt;%c4Name%&lt;/div&gt;&lt;/b&gt;&lt;/font&gt;&lt;div style=&quot;text-align: left&quot;&gt;[%c4Application%]&lt;/div&gt;" id="wkqr8Lv-P-HSKv5gRVWf-93">
          <mxCell style="rounded=1;fontSize=11;whiteSpace=wrap;html=1;dashed=1;arcSize=20;fillColor=none;strokeColor=#666666;fontColor=#333333;labelBackgroundColor=none;align=left;verticalAlign=bottom;labelBorderColor=none;spacingTop=0;spacing=10;dashPattern=8 4;metaEdit=1;rotatable=0;perimeter=rectanglePerimeter;noLabel=0;labelPadding=0;allowArrows=0;connectable=0;expand=0;recursiveResize=0;editable=1;pointerEvents=0;absoluteArcSize=1;points=[[0.25,0,0],[0.5,0,0],[0.75,0,0],[1,0.25,0],[1,0.5,0],[1,0.75,0],[0.75,1,0],[0.5,1,0],[0.25,1,0],[0,0.75,0],[0,0.5,0],[0,0.25,0]];" parent="1" vertex="1">
            <mxGeometry x="160" y="-30" width="620" height="120" as="geometry" />
          </mxCell>
        </object>
        <mxCell id="wkqr8Lv-P-HSKv5gRVWf-9" value="&lt;font style=&quot;font-size: 11px;&quot;&gt;Student/Teacher&lt;/font&gt;" style="rounded=0;whiteSpace=wrap;html=1;" parent="1" vertex="1">
          <mxGeometry x="40" y="-10" width="80" height="50" as="geometry" />
        </mxCell>
        <mxCell id="wkqr8Lv-P-HSKv5gRVWf-10" value="Display Contr&lt;span style=&quot;color: rgba(0, 0, 0, 0); font-family: monospace; font-size: 0px; text-align: start; text-wrap: nowrap;&quot;&gt;%3CmxGraphModel%3E%3Croot%3E%3CmxCell%20id%3D%220%22%2F%3E%3CmxCell%20id%3D%221%22%20parent%3D%220%22%2F%3E%3CmxCell%20id%3D%222%22%20value%3D%22Teacher%22%20style%3D%22rounded%3D0%3BwhiteSpace%3Dwrap%3Bhtml%3D1%3B%22%20vertex%3D%221%22%20parent%3D%221%22%3E%3CmxGeometry%20x%3D%2280%22%20y%3D%2240%22%20width%3D%2280%22%20height%3D%2250%22%20as%3D%22geometry%22%2F%3E%3C%2FmxCell%3E%3C%2Froot%3E%3C%2FmxGraphModel%3E&lt;/span&gt;oller" style="rounded=0;whiteSpace=wrap;html=1;" parent="1" vertex="1">
          <mxGeometry x="180" y="-10" width="80" height="50" as="geometry" />
        </mxCell>
        <mxCell id="wkqr8Lv-P-HSKv5gRVWf-11" value="Login Controller" style="rounded=0;whiteSpace=wrap;html=1;" parent="1" vertex="1">
          <mxGeometry x="320" y="-10" width="110" height="50" as="geometry" />
        </mxCell>
        <mxCell id="wkqr8Lv-P-HSKv5gRVWf-13" value="User Authenticator" style="rounded=0;whiteSpace=wrap;html=1;" parent="1" vertex="1">
          <mxGeometry x="480" y="-10" width="110" height="50" as="geometry" />
        </mxCell>
        <mxCell id="wkqr8Lv-P-HSKv5gRVWf-14" value="Manager&#39;s Page Controller" style="rounded=0;whiteSpace=wrap;html=1;" parent="1" vertex="1">
          <mxGeometry x="650" y="-10" width="110" height="50" as="geometry" />
        </mxCell>
        <mxCell id="wkqr8Lv-P-HSKv5gRVWf-15" value="API Gateway" style="rounded=0;whiteSpace=wrap;html=1;" parent="1" vertex="1">
          <mxGeometry x="810" y="-10" width="110" height="50" as="geometry" />
        </mxCell>
        <mxCell id="wkqr8Lv-P-HSKv5gRVWf-16" value="Review Credits/Grades" style="rounded=0;whiteSpace=wrap;html=1;" parent="1" vertex="1">
          <mxGeometry x="980" y="-10" width="110" height="50" as="geometry" />
        </mxCell>
        <mxCell id="wkqr8Lv-P-HSKv5gRVWf-17" value="Database" style="rounded=0;whiteSpace=wrap;html=1;" parent="1" vertex="1">
          <mxGeometry x="1340" y="-10" width="110" height="50" as="geometry" />
        </mxCell>
        <mxCell id="wkqr8Lv-P-HSKv5gRVWf-18" value="Data Accsess Layer (DAL)" style="rounded=0;whiteSpace=wrap;html=1;" parent="1" vertex="1">
          <mxGeometry x="1150" y="-10" width="110" height="50" as="geometry" />
        </mxCell>
        <mxCell id="wkqr8Lv-P-HSKv5gRVWf-19" value="" style="endArrow=none;dashed=1;html=1;rounded=0;exitX=0.5;exitY=0;exitDx=0;exitDy=0;" parent="1" source="wkqr8Lv-P-HSKv5gRVWf-28" edge="1">
          <mxGeometry width="50" height="50" relative="1" as="geometry">
            <mxPoint x="80" y="70" as="sourcePoint" />
            <mxPoint x="80" y="40" as="targetPoint" />
          </mxGeometry>
        </mxCell>
        <mxCell id="wkqr8Lv-P-HSKv5gRVWf-20" value="" style="endArrow=none;dashed=1;html=1;rounded=0;exitX=0.5;exitY=0;exitDx=0;exitDy=0;" parent="1" source="wkqr8Lv-P-HSKv5gRVWf-30" edge="1">
          <mxGeometry width="50" height="50" relative="1" as="geometry">
            <mxPoint x="219.7237500000001" y="70" as="sourcePoint" />
            <mxPoint x="219.66" y="40" as="targetPoint" />
          </mxGeometry>
        </mxCell>
        <mxCell id="wkqr8Lv-P-HSKv5gRVWf-21" value="" style="endArrow=none;dashed=1;html=1;rounded=0;entryX=0.5;entryY=1;entryDx=0;entryDy=0;" parent="1" target="wkqr8Lv-P-HSKv5gRVWf-11" edge="1">
          <mxGeometry width="50" height="50" relative="1" as="geometry">
            <mxPoint x="374.66" y="640" as="sourcePoint" />
            <mxPoint x="374.66" y="90" as="targetPoint" />
          </mxGeometry>
        </mxCell>
        <mxCell id="wkqr8Lv-P-HSKv5gRVWf-22" value="" style="endArrow=none;dashed=1;html=1;rounded=0;entryX=0.5;entryY=1;entryDx=0;entryDy=0;" parent="1" target="wkqr8Lv-P-HSKv5gRVWf-13" edge="1">
          <mxGeometry width="50" height="50" relative="1" as="geometry">
            <mxPoint x="534.6600000000001" y="640" as="sourcePoint" />
            <mxPoint x="534.6600000000001" y="90" as="targetPoint" />
          </mxGeometry>
        </mxCell>
        <mxCell id="wkqr8Lv-P-HSKv5gRVWf-23" value="" style="endArrow=none;dashed=1;html=1;rounded=0;entryX=0.5;entryY=1;entryDx=0;entryDy=0;" parent="1" source="wkqr8Lv-P-HSKv5gRVWf-48" target="wkqr8Lv-P-HSKv5gRVWf-14" edge="1">
          <mxGeometry width="50" height="50" relative="1" as="geometry">
            <mxPoint x="704.6600000000001" y="640" as="sourcePoint" />
            <mxPoint x="704.6600000000001" y="90" as="targetPoint" />
          </mxGeometry>
        </mxCell>
        <mxCell id="wkqr8Lv-P-HSKv5gRVWf-24" value="" style="endArrow=none;dashed=1;html=1;rounded=0;entryX=0.5;entryY=1;entryDx=0;entryDy=0;" parent="1" source="wkqr8Lv-P-HSKv5gRVWf-52" target="wkqr8Lv-P-HSKv5gRVWf-15" edge="1">
          <mxGeometry width="50" height="50" relative="1" as="geometry">
            <mxPoint x="864.6600000000001" y="640" as="sourcePoint" />
            <mxPoint x="864.6600000000001" y="90" as="targetPoint" />
          </mxGeometry>
        </mxCell>
        <mxCell id="wkqr8Lv-P-HSKv5gRVWf-25" value="" style="endArrow=none;dashed=1;html=1;rounded=0;entryX=0.5;entryY=1;entryDx=0;entryDy=0;" parent="1" source="wkqr8Lv-P-HSKv5gRVWf-54" target="wkqr8Lv-P-HSKv5gRVWf-16" edge="1">
          <mxGeometry width="50" height="50" relative="1" as="geometry">
            <mxPoint x="1034.66" y="640" as="sourcePoint" />
            <mxPoint x="1034.66" y="90" as="targetPoint" />
          </mxGeometry>
        </mxCell>
        <mxCell id="wkqr8Lv-P-HSKv5gRVWf-26" value="" style="endArrow=none;dashed=1;html=1;rounded=0;entryX=0.5;entryY=1;entryDx=0;entryDy=0;" parent="1" target="wkqr8Lv-P-HSKv5gRVWf-18" edge="1">
          <mxGeometry width="50" height="50" relative="1" as="geometry">
            <mxPoint x="1204.66" y="640" as="sourcePoint" />
            <mxPoint x="1204.66" y="90" as="targetPoint" />
          </mxGeometry>
        </mxCell>
        <mxCell id="wkqr8Lv-P-HSKv5gRVWf-27" value="" style="endArrow=none;dashed=1;html=1;rounded=0;entryX=0.5;entryY=1;entryDx=0;entryDy=0;" parent="1" source="wkqr8Lv-P-HSKv5gRVWf-34" target="wkqr8Lv-P-HSKv5gRVWf-17" edge="1">
          <mxGeometry width="50" height="50" relative="1" as="geometry">
            <mxPoint x="1394.66" y="640" as="sourcePoint" />
            <mxPoint x="1394.66" y="90" as="targetPoint" />
          </mxGeometry>
        </mxCell>
        <mxCell id="wkqr8Lv-P-HSKv5gRVWf-29" value="" style="endArrow=none;dashed=1;html=1;rounded=0;" parent="1" target="wkqr8Lv-P-HSKv5gRVWf-28" edge="1">
          <mxGeometry width="50" height="50" relative="1" as="geometry">
            <mxPoint x="80" y="640" as="sourcePoint" />
            <mxPoint x="80" y="90" as="targetPoint" />
          </mxGeometry>
        </mxCell>
        <mxCell id="wkqr8Lv-P-HSKv5gRVWf-36" style="edgeStyle=orthogonalEdgeStyle;rounded=0;orthogonalLoop=1;jettySize=auto;html=1;entryX=0;entryY=0.5;entryDx=0;entryDy=0;" parent="1" edge="1">
          <mxGeometry relative="1" as="geometry">
            <mxPoint x="85" y="139.9999999999999" as="sourcePoint" />
            <mxPoint x="215" y="139.9999999999999" as="targetPoint" />
          </mxGeometry>
        </mxCell>
        <mxCell id="wkqr8Lv-P-HSKv5gRVWf-73" value="Logs in" style="edgeLabel;html=1;align=center;verticalAlign=middle;resizable=0;points=[];" parent="wkqr8Lv-P-HSKv5gRVWf-36" connectable="0" vertex="1">
          <mxGeometry x="-0.034" relative="1" as="geometry">
            <mxPoint as="offset" />
          </mxGeometry>
        </mxCell>
        <mxCell id="wkqr8Lv-P-HSKv5gRVWf-61" style="edgeStyle=orthogonalEdgeStyle;rounded=0;orthogonalLoop=1;jettySize=auto;html=1;" parent="1" edge="1">
          <mxGeometry relative="1" as="geometry">
            <mxPoint x="85" y="399.9999999999999" as="sourcePoint" />
            <mxPoint x="215" y="399.9999999999999" as="targetPoint" />
          </mxGeometry>
        </mxCell>
        <mxCell id="wkqr8Lv-P-HSKv5gRVWf-83" value="Requests students results" style="edgeLabel;html=1;align=center;verticalAlign=middle;resizable=0;points=[];fontSize=10;" parent="wkqr8Lv-P-HSKv5gRVWf-61" connectable="0" vertex="1">
          <mxGeometry x="-0.3629" y="1" relative="1" as="geometry">
            <mxPoint x="24" as="offset" />
          </mxGeometry>
        </mxCell>
        <mxCell id="wkqr8Lv-P-HSKv5gRVWf-28" value="" style="rounded=0;whiteSpace=wrap;html=1;" parent="1" vertex="1">
          <mxGeometry x="75" y="120" width="10" height="480" as="geometry" />
        </mxCell>
        <mxCell id="wkqr8Lv-P-HSKv5gRVWf-31" value="" style="endArrow=none;dashed=1;html=1;rounded=0;" parent="1" source="wkqr8Lv-P-HSKv5gRVWf-71" target="wkqr8Lv-P-HSKv5gRVWf-30" edge="1">
          <mxGeometry width="50" height="50" relative="1" as="geometry">
            <mxPoint x="219.66" y="640" as="sourcePoint" />
            <mxPoint x="219.66" y="90" as="targetPoint" />
          </mxGeometry>
        </mxCell>
        <mxCell id="wkqr8Lv-P-HSKv5gRVWf-37" style="edgeStyle=orthogonalEdgeStyle;rounded=0;orthogonalLoop=1;jettySize=auto;html=1;entryX=0;entryY=0.5;entryDx=0;entryDy=0;" parent="1" edge="1">
          <mxGeometry relative="1" as="geometry">
            <mxPoint x="225" y="159.9999999999999" as="sourcePoint" />
            <mxPoint x="370" y="159.9999999999999" as="targetPoint" />
          </mxGeometry>
        </mxCell>
        <mxCell id="wkqr8Lv-P-HSKv5gRVWf-74" value="Sends a login request" style="edgeLabel;html=1;align=center;verticalAlign=middle;resizable=0;points=[];" parent="wkqr8Lv-P-HSKv5gRVWf-37" connectable="0" vertex="1">
          <mxGeometry x="-0.1054" relative="1" as="geometry">
            <mxPoint x="10" as="offset" />
          </mxGeometry>
        </mxCell>
        <mxCell id="wkqr8Lv-P-HSKv5gRVWf-49" style="edgeStyle=orthogonalEdgeStyle;rounded=0;orthogonalLoop=1;jettySize=auto;html=1;" parent="1" source="wkqr8Lv-P-HSKv5gRVWf-30" target="wkqr8Lv-P-HSKv5gRVWf-48" edge="1">
          <mxGeometry relative="1" as="geometry">
            <Array as="points">
              <mxPoint x="350" y="320" />
              <mxPoint x="350" y="320" />
            </Array>
          </mxGeometry>
        </mxCell>
        <mxCell id="wkqr8Lv-P-HSKv5gRVWf-80" value="Request manager&#39;s page information" style="edgeLabel;html=1;align=center;verticalAlign=middle;resizable=0;points=[];" parent="wkqr8Lv-P-HSKv5gRVWf-49" connectable="0" vertex="1">
          <mxGeometry x="-0.1665" relative="1" as="geometry">
            <mxPoint x="-93" as="offset" />
          </mxGeometry>
        </mxCell>
        <mxCell id="wkqr8Lv-P-HSKv5gRVWf-62" style="edgeStyle=orthogonalEdgeStyle;rounded=0;orthogonalLoop=1;jettySize=auto;html=1;" parent="1" edge="1">
          <mxGeometry relative="1" as="geometry">
            <mxPoint x="225" y="429.9999999999999" as="sourcePoint" />
            <mxPoint x="860" y="429.9999999999999" as="targetPoint" />
          </mxGeometry>
        </mxCell>
        <mxCell id="wkqr8Lv-P-HSKv5gRVWf-84" value="&lt;font style=&quot;font-size: 12px;&quot;&gt;Request&amp;nbsp;&lt;/font&gt;&lt;font style=&quot;font-size: 12px;&quot;&gt;c&lt;/font&gt;&lt;span style=&quot;font-size: 12px; text-wrap-mode: wrap; background-color: rgb(251, 251, 251);&quot;&gt;redits/g&lt;/span&gt;&lt;span style=&quot;font-size: 12px; text-wrap-mode: wrap; background-color: rgb(251, 251, 251);&quot;&gt;rades&lt;/span&gt;" style="edgeLabel;html=1;align=center;verticalAlign=middle;resizable=0;points=[];" parent="wkqr8Lv-P-HSKv5gRVWf-62" connectable="0" vertex="1">
          <mxGeometry x="-0.1462" relative="1" as="geometry">
            <mxPoint x="-186" as="offset" />
          </mxGeometry>
        </mxCell>
        <mxCell id="wkqr8Lv-P-HSKv5gRVWf-30" value="" style="rounded=0;whiteSpace=wrap;html=1;" parent="1" vertex="1">
          <mxGeometry x="215" y="120" width="10" height="260" as="geometry" />
        </mxCell>
        <mxCell id="wkqr8Lv-P-HSKv5gRVWf-38" style="edgeStyle=orthogonalEdgeStyle;rounded=0;orthogonalLoop=1;jettySize=auto;html=1;" parent="1" source="wkqr8Lv-P-HSKv5gRVWf-32" target="wkqr8Lv-P-HSKv5gRVWf-33" edge="1">
          <mxGeometry relative="1" as="geometry">
            <Array as="points">
              <mxPoint x="460" y="180" />
              <mxPoint x="460" y="180" />
            </Array>
          </mxGeometry>
        </mxCell>
        <mxCell id="wkqr8Lv-P-HSKv5gRVWf-75" value="Sends authentication request" style="edgeLabel;html=1;align=center;verticalAlign=middle;resizable=0;points=[];" parent="wkqr8Lv-P-HSKv5gRVWf-38" connectable="0" vertex="1">
          <mxGeometry x="0.1154" relative="1" as="geometry">
            <mxPoint x="-13" as="offset" />
          </mxGeometry>
        </mxCell>
        <mxCell id="wkqr8Lv-P-HSKv5gRVWf-32" value="" style="rounded=0;whiteSpace=wrap;html=1;" parent="1" vertex="1">
          <mxGeometry x="370" y="120" width="10" height="170" as="geometry" />
        </mxCell>
        <mxCell id="wkqr8Lv-P-HSKv5gRVWf-60" style="edgeStyle=orthogonalEdgeStyle;rounded=0;orthogonalLoop=1;jettySize=auto;html=1;" parent="1" source="wkqr8Lv-P-HSKv5gRVWf-33" target="wkqr8Lv-P-HSKv5gRVWf-34" edge="1">
          <mxGeometry relative="1" as="geometry">
            <Array as="points">
              <mxPoint x="970" y="210" />
              <mxPoint x="970" y="210" />
            </Array>
          </mxGeometry>
        </mxCell>
        <mxCell id="wkqr8Lv-P-HSKv5gRVWf-76" value="Validates user login credentials" style="edgeLabel;html=1;align=center;verticalAlign=middle;resizable=0;points=[];" parent="wkqr8Lv-P-HSKv5gRVWf-60" connectable="0" vertex="1">
          <mxGeometry x="-0.3196" y="3" relative="1" as="geometry">
            <mxPoint x="-179" y="-2" as="offset" />
          </mxGeometry>
        </mxCell>
        <mxCell id="wkqr8Lv-P-HSKv5gRVWf-33" value="" style="rounded=0;whiteSpace=wrap;html=1;" parent="1" vertex="1">
          <mxGeometry x="530" y="160" width="10" height="110" as="geometry" />
        </mxCell>
        <mxCell id="wkqr8Lv-P-HSKv5gRVWf-35" value="" style="endArrow=none;dashed=1;html=1;rounded=0;" parent="1" target="wkqr8Lv-P-HSKv5gRVWf-34" edge="1">
          <mxGeometry width="50" height="50" relative="1" as="geometry">
            <mxPoint x="1394.66" y="640" as="sourcePoint" />
            <mxPoint x="1394.66" y="90" as="targetPoint" />
          </mxGeometry>
        </mxCell>
        <mxCell id="wkqr8Lv-P-HSKv5gRVWf-34" value="" style="rounded=0;whiteSpace=wrap;html=1;" parent="1" vertex="1">
          <mxGeometry x="1390" y="190" width="10" height="70" as="geometry" />
        </mxCell>
        <mxCell id="wkqr8Lv-P-HSKv5gRVWf-42" value="" style="html=1;labelBackgroundColor=#ffffff;startArrow=none;startFill=0;startSize=6;endArrow=classic;endFill=1;endSize=6;jettySize=auto;orthogonalLoop=1;strokeWidth=1;dashed=1;fontSize=14;rounded=0;" parent="1" edge="1">
          <mxGeometry width="60" height="60" relative="1" as="geometry">
            <mxPoint x="1390" y="229.9999999999999" as="sourcePoint" />
            <mxPoint x="540" y="229.9999999999999" as="targetPoint" />
          </mxGeometry>
        </mxCell>
        <mxCell id="wkqr8Lv-P-HSKv5gRVWf-77" value="Confirms login credentials" style="edgeLabel;html=1;align=center;verticalAlign=middle;resizable=0;points=[];" parent="wkqr8Lv-P-HSKv5gRVWf-42" connectable="0" vertex="1">
          <mxGeometry x="0.2693" y="-3" relative="1" as="geometry">
            <mxPoint x="-211" y="3" as="offset" />
          </mxGeometry>
        </mxCell>
        <mxCell id="wkqr8Lv-P-HSKv5gRVWf-43" value="" style="html=1;labelBackgroundColor=#ffffff;startArrow=none;startFill=0;startSize=6;endArrow=classic;endFill=1;endSize=6;jettySize=auto;orthogonalLoop=1;strokeWidth=1;dashed=1;fontSize=14;rounded=0;" parent="1" edge="1">
          <mxGeometry width="60" height="60" relative="1" as="geometry">
            <mxPoint x="530" y="250.00499999999988" as="sourcePoint" />
            <mxPoint x="380" y="250.00016129032247" as="targetPoint" />
          </mxGeometry>
        </mxCell>
        <mxCell id="wkqr8Lv-P-HSKv5gRVWf-78" value="Confirm authentication" style="edgeLabel;html=1;align=center;verticalAlign=middle;resizable=0;points=[];" parent="wkqr8Lv-P-HSKv5gRVWf-43" connectable="0" vertex="1">
          <mxGeometry x="0.1513" y="-2" relative="1" as="geometry">
            <mxPoint x="6" y="2" as="offset" />
          </mxGeometry>
        </mxCell>
        <mxCell id="wkqr8Lv-P-HSKv5gRVWf-44" value="" style="html=1;labelBackgroundColor=#ffffff;startArrow=none;startFill=0;startSize=6;endArrow=classic;endFill=1;endSize=6;jettySize=auto;orthogonalLoop=1;strokeWidth=1;dashed=1;fontSize=14;rounded=0;" parent="1" edge="1">
          <mxGeometry width="60" height="60" relative="1" as="geometry">
            <mxPoint x="370" y="269.9999999999999" as="sourcePoint" />
            <mxPoint x="225" y="269.9999999999999" as="targetPoint" />
          </mxGeometry>
        </mxCell>
        <mxCell id="wkqr8Lv-P-HSKv5gRVWf-79" value="Confirms login" style="edgeLabel;html=1;align=center;verticalAlign=middle;resizable=0;points=[];" parent="wkqr8Lv-P-HSKv5gRVWf-44" connectable="0" vertex="1">
          <mxGeometry x="-0.161" y="-1" relative="1" as="geometry">
            <mxPoint x="-9" y="1" as="offset" />
          </mxGeometry>
        </mxCell>
        <mxCell id="wkqr8Lv-P-HSKv5gRVWf-46" value="" style="html=1;labelBackgroundColor=#ffffff;startArrow=none;startFill=0;startSize=6;endArrow=classic;endFill=1;endSize=6;jettySize=auto;orthogonalLoop=1;strokeWidth=1;dashed=1;fontSize=14;rounded=0;" parent="1" edge="1">
          <mxGeometry width="60" height="60" relative="1" as="geometry">
            <mxPoint x="215" y="369.9999999999999" as="sourcePoint" />
            <mxPoint x="85" y="369.9999999999999" as="targetPoint" />
          </mxGeometry>
        </mxCell>
        <mxCell id="wkqr8Lv-P-HSKv5gRVWf-82" value="Displays page" style="edgeLabel;html=1;align=center;verticalAlign=middle;resizable=0;points=[];" parent="wkqr8Lv-P-HSKv5gRVWf-46" connectable="0" vertex="1">
          <mxGeometry x="-0.0509" y="-3" relative="1" as="geometry">
            <mxPoint as="offset" />
          </mxGeometry>
        </mxCell>
        <mxCell id="wkqr8Lv-P-HSKv5gRVWf-50" value="" style="html=1;labelBackgroundColor=#ffffff;startArrow=none;startFill=0;startSize=6;endArrow=classic;endFill=1;endSize=6;jettySize=auto;orthogonalLoop=1;strokeWidth=1;dashed=1;fontSize=14;rounded=0;" parent="1" edge="1">
          <mxGeometry width="60" height="60" relative="1" as="geometry">
            <mxPoint x="700" y="349.9999999999999" as="sourcePoint" />
            <mxPoint x="225" y="349.9999999999999" as="targetPoint" />
          </mxGeometry>
        </mxCell>
        <mxCell id="wkqr8Lv-P-HSKv5gRVWf-81" value="Returns page" style="edgeLabel;html=1;align=center;verticalAlign=middle;resizable=0;points=[];" parent="wkqr8Lv-P-HSKv5gRVWf-50" connectable="0" vertex="1">
          <mxGeometry x="0.1142" y="-2" relative="1" as="geometry">
            <mxPoint x="-155" as="offset" />
          </mxGeometry>
        </mxCell>
        <mxCell id="wkqr8Lv-P-HSKv5gRVWf-51" value="" style="endArrow=none;dashed=1;html=1;rounded=0;" parent="1" target="wkqr8Lv-P-HSKv5gRVWf-48" edge="1">
          <mxGeometry width="50" height="50" relative="1" as="geometry">
            <mxPoint x="704.6600000000001" y="640" as="sourcePoint" />
            <mxPoint x="704.6600000000001" y="90" as="targetPoint" />
          </mxGeometry>
        </mxCell>
        <mxCell id="wkqr8Lv-P-HSKv5gRVWf-48" value="" style="rounded=0;whiteSpace=wrap;html=1;" parent="1" vertex="1">
          <mxGeometry x="700" y="300" width="10" height="70" as="geometry" />
        </mxCell>
        <mxCell id="wkqr8Lv-P-HSKv5gRVWf-53" value="" style="endArrow=none;dashed=1;html=1;rounded=0;" parent="1" target="wkqr8Lv-P-HSKv5gRVWf-52" edge="1">
          <mxGeometry width="50" height="50" relative="1" as="geometry">
            <mxPoint x="864.6600000000001" y="640" as="sourcePoint" />
            <mxPoint x="864.6600000000001" y="90" as="targetPoint" />
          </mxGeometry>
        </mxCell>
        <mxCell id="wkqr8Lv-P-HSKv5gRVWf-63" style="edgeStyle=orthogonalEdgeStyle;rounded=0;orthogonalLoop=1;jettySize=auto;html=1;" parent="1" source="wkqr8Lv-P-HSKv5gRVWf-52" target="wkqr8Lv-P-HSKv5gRVWf-54" edge="1">
          <mxGeometry relative="1" as="geometry">
            <Array as="points">
              <mxPoint x="950" y="450" />
              <mxPoint x="950" y="450" />
            </Array>
          </mxGeometry>
        </mxCell>
        <mxCell id="wkqr8Lv-P-HSKv5gRVWf-85" value="Reroutes Request" style="edgeLabel;html=1;align=center;verticalAlign=middle;resizable=0;points=[];" parent="wkqr8Lv-P-HSKv5gRVWf-63" connectable="0" vertex="1">
          <mxGeometry x="-0.1224" y="-3" relative="1" as="geometry">
            <mxPoint x="10" y="-3" as="offset" />
          </mxGeometry>
        </mxCell>
        <mxCell id="wkqr8Lv-P-HSKv5gRVWf-52" value="" style="rounded=0;whiteSpace=wrap;html=1;" parent="1" vertex="1">
          <mxGeometry x="860" y="410" width="10" height="170" as="geometry" />
        </mxCell>
        <mxCell id="wkqr8Lv-P-HSKv5gRVWf-55" value="" style="endArrow=none;dashed=1;html=1;rounded=0;" parent="1" target="wkqr8Lv-P-HSKv5gRVWf-54" edge="1">
          <mxGeometry width="50" height="50" relative="1" as="geometry">
            <mxPoint x="1034.66" y="640" as="sourcePoint" />
            <mxPoint x="1034.66" y="90" as="targetPoint" />
          </mxGeometry>
        </mxCell>
        <mxCell id="wkqr8Lv-P-HSKv5gRVWf-64" style="edgeStyle=orthogonalEdgeStyle;rounded=0;orthogonalLoop=1;jettySize=auto;html=1;" parent="1" edge="1">
          <mxGeometry relative="1" as="geometry">
            <mxPoint x="1040" y="469.65999999999985" as="sourcePoint" />
            <mxPoint x="1200" y="469.65999999999985" as="targetPoint" />
          </mxGeometry>
        </mxCell>
        <mxCell id="wkqr8Lv-P-HSKv5gRVWf-86" value="Sends view request" style="edgeLabel;html=1;align=center;verticalAlign=middle;resizable=0;points=[];" parent="wkqr8Lv-P-HSKv5gRVWf-64" connectable="0" vertex="1">
          <mxGeometry x="-0.2819" y="2" relative="1" as="geometry">
            <mxPoint x="23" y="2" as="offset" />
          </mxGeometry>
        </mxCell>
        <mxCell id="wkqr8Lv-P-HSKv5gRVWf-54" value="" style="rounded=0;whiteSpace=wrap;html=1;" parent="1" vertex="1">
          <mxGeometry x="1030" y="430" width="10" height="130" as="geometry" />
        </mxCell>
        <mxCell id="wkqr8Lv-P-HSKv5gRVWf-65" style="edgeStyle=orthogonalEdgeStyle;rounded=0;orthogonalLoop=1;jettySize=auto;html=1;" parent="1" source="wkqr8Lv-P-HSKv5gRVWf-56" target="wkqr8Lv-P-HSKv5gRVWf-58" edge="1">
          <mxGeometry relative="1" as="geometry">
            <Array as="points">
              <mxPoint x="1300" y="490" />
              <mxPoint x="1300" y="490" />
            </Array>
          </mxGeometry>
        </mxCell>
        <mxCell id="wkqr8Lv-P-HSKv5gRVWf-87" value="Request data" style="edgeLabel;html=1;align=center;verticalAlign=middle;resizable=0;points=[];" parent="wkqr8Lv-P-HSKv5gRVWf-65" connectable="0" vertex="1">
          <mxGeometry x="-0.1203" y="3" relative="1" as="geometry">
            <mxPoint x="11" y="3" as="offset" />
          </mxGeometry>
        </mxCell>
        <mxCell id="wkqr8Lv-P-HSKv5gRVWf-56" value="" style="rounded=0;whiteSpace=wrap;html=1;" parent="1" vertex="1">
          <mxGeometry x="1200" y="450" width="10" height="90" as="geometry" />
        </mxCell>
        <mxCell id="wkqr8Lv-P-HSKv5gRVWf-58" value="" style="rounded=0;whiteSpace=wrap;html=1;" parent="1" vertex="1">
          <mxGeometry x="1390" y="470" width="10" height="50" as="geometry" />
        </mxCell>
        <mxCell id="wkqr8Lv-P-HSKv5gRVWf-66" value="" style="html=1;labelBackgroundColor=#ffffff;startArrow=none;startFill=0;startSize=6;endArrow=classic;endFill=1;endSize=6;jettySize=auto;orthogonalLoop=1;strokeWidth=1;dashed=1;fontSize=14;rounded=0;" parent="1" edge="1">
          <mxGeometry width="60" height="60" relative="1" as="geometry">
            <mxPoint x="1390" y="510.0000000000001" as="sourcePoint" />
            <mxPoint x="1210" y="510.0000000000001" as="targetPoint" />
          </mxGeometry>
        </mxCell>
        <mxCell id="wkqr8Lv-P-HSKv5gRVWf-88" value="Sends data" style="edgeLabel;html=1;align=center;verticalAlign=middle;resizable=0;points=[];" parent="wkqr8Lv-P-HSKv5gRVWf-66" connectable="0" vertex="1">
          <mxGeometry x="-0.0176" relative="1" as="geometry">
            <mxPoint as="offset" />
          </mxGeometry>
        </mxCell>
        <mxCell id="wkqr8Lv-P-HSKv5gRVWf-67" value="" style="html=1;labelBackgroundColor=#ffffff;startArrow=none;startFill=0;startSize=6;endArrow=classic;endFill=1;endSize=6;jettySize=auto;orthogonalLoop=1;strokeWidth=1;dashed=1;fontSize=14;rounded=0;" parent="1" edge="1">
          <mxGeometry width="60" height="60" relative="1" as="geometry">
            <mxPoint x="1200" y="519.9999999999999" as="sourcePoint" />
            <mxPoint x="1040" y="519.9999999999999" as="targetPoint" />
          </mxGeometry>
        </mxCell>
        <mxCell id="wkqr8Lv-P-HSKv5gRVWf-89" value="&lt;font style=&quot;font-size: 12px;&quot;&gt;Send c&lt;/font&gt;&lt;span style=&quot;font-size: 12px; text-wrap-mode: wrap; background-color: rgb(251, 251, 251);&quot;&gt;redits/g&lt;/span&gt;&lt;span style=&quot;font-size: 12px; text-wrap-mode: wrap; background-color: rgb(251, 251, 251);&quot;&gt;rades&lt;/span&gt;" style="edgeLabel;html=1;align=center;verticalAlign=middle;resizable=0;points=[];" parent="wkqr8Lv-P-HSKv5gRVWf-67" connectable="0" vertex="1">
          <mxGeometry x="0.006" y="1" relative="1" as="geometry">
            <mxPoint as="offset" />
          </mxGeometry>
        </mxCell>
        <mxCell id="wkqr8Lv-P-HSKv5gRVWf-68" value="" style="html=1;labelBackgroundColor=#ffffff;startArrow=none;startFill=0;startSize=6;endArrow=classic;endFill=1;endSize=6;jettySize=auto;orthogonalLoop=1;strokeWidth=1;dashed=1;fontSize=14;rounded=0;" parent="1" edge="1">
          <mxGeometry width="60" height="60" relative="1" as="geometry">
            <mxPoint x="1030" y="539.9999999999999" as="sourcePoint" />
            <mxPoint x="870" y="539.9999999999999" as="targetPoint" />
          </mxGeometry>
        </mxCell>
        <mxCell id="wkqr8Lv-P-HSKv5gRVWf-90" value="&lt;font style=&quot;font-size: 12px;&quot;&gt;Send c&lt;/font&gt;&lt;span style=&quot;text-wrap-mode: wrap; font-size: 12px; background-color: rgb(251, 251, 251);&quot;&gt;redits/g&lt;/span&gt;&lt;span style=&quot;text-wrap-mode: wrap; font-size: 12px; background-color: rgb(251, 251, 251);&quot;&gt;rades&lt;/span&gt;" style="edgeLabel;html=1;align=center;verticalAlign=middle;resizable=0;points=[];" parent="wkqr8Lv-P-HSKv5gRVWf-68" connectable="0" vertex="1">
          <mxGeometry x="0.1138" relative="1" as="geometry">
            <mxPoint x="19" as="offset" />
          </mxGeometry>
        </mxCell>
        <mxCell id="wkqr8Lv-P-HSKv5gRVWf-69" value="" style="html=1;labelBackgroundColor=#ffffff;startArrow=none;startFill=0;startSize=6;endArrow=classic;endFill=1;endSize=6;jettySize=auto;orthogonalLoop=1;strokeWidth=1;dashed=1;fontSize=14;rounded=0;" parent="1" edge="1">
          <mxGeometry width="60" height="60" relative="1" as="geometry">
            <mxPoint x="860" y="559.9999999999999" as="sourcePoint" />
            <mxPoint x="225" y="559.9999999999999" as="targetPoint" />
          </mxGeometry>
        </mxCell>
        <mxCell id="wkqr8Lv-P-HSKv5gRVWf-91" value="&lt;font style=&quot;font-size: 12px;&quot;&gt;Send c&lt;/font&gt;&lt;span style=&quot;text-wrap-mode: wrap; font-size: 12px; background-color: rgb(251, 251, 251);&quot;&gt;redits/g&lt;/span&gt;&lt;span style=&quot;text-wrap-mode: wrap; font-size: 12px; background-color: rgb(251, 251, 251);&quot;&gt;rades&lt;/span&gt;" style="edgeLabel;html=1;align=center;verticalAlign=middle;resizable=0;points=[];" parent="wkqr8Lv-P-HSKv5gRVWf-69" connectable="0" vertex="1">
          <mxGeometry x="-0.097" y="-1" relative="1" as="geometry">
            <mxPoint x="-273" y="1" as="offset" />
          </mxGeometry>
        </mxCell>
        <mxCell id="wkqr8Lv-P-HSKv5gRVWf-70" value="" style="html=1;labelBackgroundColor=#ffffff;startArrow=none;startFill=0;startSize=6;endArrow=classic;endFill=1;endSize=6;jettySize=auto;orthogonalLoop=1;strokeWidth=1;dashed=1;fontSize=14;rounded=0;" parent="1" edge="1">
          <mxGeometry width="60" height="60" relative="1" as="geometry">
            <mxPoint x="215" y="579.9999999999999" as="sourcePoint" />
            <mxPoint x="85" y="579.9999999999999" as="targetPoint" />
          </mxGeometry>
        </mxCell>
        <mxCell id="wkqr8Lv-P-HSKv5gRVWf-92" value="&lt;font&gt;Displays credits/grades&lt;/font&gt;" style="edgeLabel;html=1;align=center;verticalAlign=middle;resizable=0;points=[];" parent="wkqr8Lv-P-HSKv5gRVWf-70" connectable="0" vertex="1">
          <mxGeometry x="0.1082" y="-2" relative="1" as="geometry">
            <mxPoint x="7" y="2" as="offset" />
          </mxGeometry>
        </mxCell>
        <mxCell id="wkqr8Lv-P-HSKv5gRVWf-72" value="" style="endArrow=none;dashed=1;html=1;rounded=0;" parent="1" target="wkqr8Lv-P-HSKv5gRVWf-71" edge="1">
          <mxGeometry width="50" height="50" relative="1" as="geometry">
            <mxPoint x="219.66" y="640" as="sourcePoint" />
            <mxPoint x="220" y="380" as="targetPoint" />
          </mxGeometry>
        </mxCell>
        <mxCell id="wkqr8Lv-P-HSKv5gRVWf-71" value="" style="rounded=0;whiteSpace=wrap;html=1;" parent="1" vertex="1">
          <mxGeometry x="215" y="390" width="10" height="200" as="geometry" />
        </mxCell>
      </root>
    </mxGraphModel>
  </diagram>
</mxfile>
